<svg width="244" height="244" viewBox="0 0 244 244" fill="none" xmlns="http://www.w3.org/2000/svg">
<path d="M121.999 217.499C174.742 217.499 217.499 174.742 217.499 121.999C217.499 69.2563 174.742 26.4996 121.999 26.4996C69.2564 26.4996 26.4998 69.2563 26.4998 121.999C26.4998 174.742 69.2564 217.499 121.999 217.499Z" fill="black"/>
<g clip-path="url(#clip0)">
<path d="M140.139 119.061C136.133 110.067 132.398 92.2983 122.126 88.3471C108.9 83.2614 100.723 116.557 98.7753 124.97H96.8056C93.4709 110.555 88.9957 90.1258 73.1692 85.5758C65.842 116.35 80.8235 149.55 94.8359 176.182C109.798 169.032 117.088 146.64 118.472 130.879H120.442L136.2 178.152C148.876 174.508 153.287 161.963 157.864 150.576C167.691 126.136 175.936 96.0782 169.682 69.8182C150.765 75.1758 145.01 102.23 140.137 119.061H140.139ZM-48.954 182.091C-32.0224 174.007 -23.9664 148.421 -21.3782 130.879H-19.4085C-17.4033 139.335 -12.0477 161.149 -1.48426 162.55C11.9786 164.33 19.036 134.462 19.9854 124.97H21.9551C26.2491 139.8 30.7715 159.085 45.5915 166.333C51.0613 143.367 44.5141 118.873 36.1153 97.3939C33.9565 91.8709 29.5227 76.98 21.9079 76.98C9.4318 76.98 2.41771 109.866 0.290439 119.061H-1.67926L-17.4368 71.7879C-45.1544 85.0242 -60.2108 155.407 -48.952 182.091H-48.954ZM-78.4974 205.727C-57.9279 295.449 36.9504 346.312 122.412 308.423C153.513 294.634 178.188 270.064 192.413 239.212C196.088 231.241 203.305 216.813 199.098 206.354C194.906 195.936 154.254 212.958 144.096 217.404C143.394 217.715 142.782 218.199 142.316 218.81C141.85 219.42 141.545 220.138 141.429 220.898C141.264 221.979 141.323 223.083 141.604 224.14C141.885 225.197 142.382 226.185 143.062 227.041C143.743 227.897 144.593 228.604 145.559 229.116C146.525 229.629 147.587 229.936 148.678 230.02L165.745 231.333C134.846 291.143 51.3036 317.588 -7.58835 269.805C-20.7696 259.112 -32.5287 246.405 -40.4429 231.333C-44.27 224.045 -47.8194 214.725 -54.3253 209.724C-60.5752 204.918 -70.0573 203.271 -78.4974 205.727Z" fill="white"/>
</g>
<defs>
<clipPath id="clip0">
<rect width="130" height="130" fill="white" transform="translate(57 58)"/>
</clipPath>
</defs>
</svg>
